<svg width="20" height="20" viewBox="0 0 20 20" fill="none" xmlns="http://www.w3.org/2000/svg">
<path d="M20 8.3871H19.2752L18.1948 8.95548C18.0732 8.88839 17.9468 8.83161 17.8103 8.79742L16.4513 8.45742V8.3029C17.0526 7.88323 17.4194 7.19 17.4194 6.45161V5.88774C17.4194 4.63452 16.4374 3.58581 15.2306 3.54935C15.1694 3.54774 15.109 3.55 15.0484 3.5529L15.4006 2.72806L13.6926 1.02032L12.6855 1.67581C12.3029 1.46032 11.8984 1.29258 11.4781 1.17484L11.2294 0H8.77097L8.52226 1.17516C8.10194 1.2929 7.6971 1.46065 7.31484 1.67613L6.30774 1.02065L4.60097 2.72742L4.94742 3.5529C4.93419 3.55226 4.92161 3.55 4.90839 3.54968C4.29065 3.53161 3.70871 3.7571 3.26677 4.18613C2.82419 4.61484 2.58065 5.19032 2.58065 5.80645V6.45161C2.58065 7.19 2.9471 7.8829 3.54839 8.30258V8.45742L2.66194 8.67903L1.05516 7.74194H0V14.4261L3.17355 15.4839H3.79161L3.86871 15.2135L4.84161 15.7974C4.85742 16.3265 5.28161 16.7519 5.81 16.7706C5.82871 17.2968 6.25161 17.7197 6.77774 17.7384C6.79645 18.2645 7.21935 18.6874 7.74548 18.7061C7.76484 19.2445 8.20581 19.6774 8.74871 19.6774C8.95032 19.6774 9.14806 19.6145 9.31419 19.5026L9.6 19.7548C9.77903 19.9126 10.0097 20 10.249 20H10.3087C10.8455 20 11.2823 19.5661 11.289 19.031C11.82 19.0242 12.25 18.5942 12.2568 18.0632C12.7881 18.0564 13.2184 17.6258 13.2245 17.0945C13.7606 17.0819 14.1935 16.6439 14.1935 16.1048C14.1935 16.0723 14.1919 16.0403 14.1887 16.0081L20 13.1026V8.3871ZM16.7742 5.88774V6.45161C16.7742 7.02419 16.4648 7.55903 15.9668 7.84742L15.8055 7.94064L15.8068 8.96161L17.4184 9.36419L13.871 11.2313V10.3623C13.871 9.92871 13.6958 9.53161 13.409 9.23806L14.5161 8.96161V7.94L14.3552 7.84677C13.8574 7.55903 13.5484 7.02419 13.5484 6.45161V5.80645C13.5484 5.36645 13.7223 4.95516 14.0384 4.64871C14.3542 4.34258 14.7732 4.17742 15.2113 4.19452C16.0729 4.22032 16.7742 4.98 16.7742 5.88774ZM10.4865 10.9777L9.02613 10.511C8.36065 10.2977 7.64032 10.2658 6.95903 10.4168L6.77419 10.4577V10.3623C6.77419 9.91742 7.07581 9.53129 7.5071 9.42323L9.35484 8.96161V7.94L9.19387 7.84677C8.69613 7.55903 8.3871 7.02419 8.3871 6.45161V5.80645C8.3871 5.36645 8.56097 4.95516 8.8771 4.64871C9.1929 4.34258 9.61452 4.17742 10.05 4.19452C10.9116 4.22032 11.6129 4.98 11.6129 5.88774V6.45161C11.6129 7.02419 11.3035 7.55903 10.8055 7.84742L10.6442 7.94064L10.6455 8.96161L12.4929 9.42323C12.9242 9.53129 13.2258 9.91742 13.2258 10.3623V11.571L13.1461 11.6129H12.9484L10.9652 11.0461C10.809 11.0019 10.6481 10.9839 10.4865 10.9777ZM6.84645 4.82806C7.45226 3.65419 8.67161 2.90323 10 2.90323C11.3158 2.90323 12.53 3.64419 13.1403 4.80194C12.9868 5.11 12.9032 5.45097 12.9032 5.80645V6.45161C12.9032 7.19 13.2697 7.8829 13.871 8.30258V8.45742L12.5806 8.78032L11.29 8.45742V8.3029C11.8913 7.88323 12.2581 7.19 12.2581 6.45161V5.88774C12.2581 4.63452 11.2761 3.58581 10.0694 3.54935C9.45193 3.53129 8.86968 3.75677 8.42774 4.18581C7.98548 4.61484 7.74194 5.19032 7.74194 5.80645V6.45161C7.74194 7.19 8.10839 7.8829 8.70968 8.30258V8.45742L7.41935 8.78032L6.12871 8.45742V8.3029C6.73 7.88323 7.09677 7.19 7.09677 6.45161V5.88774C7.09677 5.50806 7.00548 5.14774 6.84645 4.82806ZM5.3629 2.8771L6.39355 1.84645L7.30064 2.43677L7.47419 2.33032C7.90903 2.06387 8.37903 1.86871 8.87097 1.75097L9.06935 1.70355L9.29387 0.645161H10.7065L10.9303 1.70323L11.1287 1.75065C11.6206 1.86839 12.0906 2.06355 12.5255 2.33L12.699 2.43645L13.6061 1.84613L14.6355 2.87581L14.2697 3.73258C14.0206 3.83968 13.7897 3.99032 13.5887 4.18516C13.5755 4.19806 13.5642 4.21194 13.5513 4.22516C12.7913 3.0171 11.4477 2.25806 10 2.25806C8.54193 2.25806 7.19452 3.02419 6.43645 4.24452C6.23355 4.03226 5.99226 3.86032 5.72484 3.74L5.3629 2.8771ZM4.19355 8.96161V7.94L4.03258 7.84677C3.53484 7.55903 3.22581 7.02419 3.22581 6.45161V5.80645C3.22581 5.36645 3.39968 4.95516 3.71581 4.64871C4.03161 4.34258 4.45161 4.17742 4.88871 4.19452C5.75032 4.22032 6.45161 4.98 6.45161 5.88774V6.45161C6.45161 7.02419 6.14226 7.55903 5.64419 7.84742L5.4829 7.94064L5.48419 8.96161L6.59097 9.23806C6.30419 9.53161 6.12903 9.92871 6.12903 10.3623V10.6013L5.1229 10.8248L5.14903 10.7335L5.16129 10.1374L3.46 9.14484L4.19355 8.96161ZM0.645161 8.3871H0.880323L3.20032 9.74032L2.02968 14.4226L0.645161 13.961V8.3871ZM3.27806 14.8387L2.64323 14.6271L3.78032 10.0787L4.51613 10.5077V10.6L3.30516 14.8387H3.27806ZM5.48387 15.7674C5.48387 15.6723 5.52226 15.579 5.58968 15.5116L6.15677 14.9445C6.22419 14.8771 6.31742 14.8387 6.41258 14.8387C6.61194 14.8387 6.77419 15.001 6.77419 15.2003C6.77419 15.2955 6.73581 15.3887 6.66839 15.4561L6.10129 16.0232C6.03387 16.0906 5.94065 16.129 5.84548 16.129C5.64613 16.129 5.48387 15.9668 5.48387 15.7674ZM6.45161 16.7352C6.45161 16.64 6.49 16.5468 6.55742 16.4794L7.12452 15.9123C7.19194 15.8448 7.28516 15.8065 7.38032 15.8065C7.57968 15.8065 7.74194 15.9687 7.74194 16.1681C7.74194 16.2632 7.70355 16.3565 7.63613 16.4239L7.06903 16.991C7.00161 17.0584 6.90839 17.0968 6.81323 17.0968C6.61387 17.0968 6.45161 16.9345 6.45161 16.7352ZM7.41935 17.7029C7.41935 17.6077 7.45774 17.5145 7.52516 17.4471L8.09226 16.88C8.15968 16.8126 8.2529 16.7742 8.34806 16.7742C8.54742 16.7742 8.70968 16.9365 8.70968 17.1358C8.70968 17.231 8.67129 17.3242 8.60387 17.3916L8.03677 17.9587C7.96935 18.0261 7.87613 18.0645 7.78097 18.0645C7.58161 18.0645 7.41935 17.9023 7.41935 17.7029ZM8.74871 19.0323C8.54935 19.0323 8.3871 18.87 8.3871 18.6706C8.3871 18.5755 8.42548 18.4823 8.4929 18.4148L9.06 17.8477C9.12742 17.7803 9.22064 17.7419 9.31581 17.7419C9.51516 17.7419 9.67742 17.9042 9.67742 18.1035C9.67742 18.1987 9.63903 18.2919 9.57161 18.3594L9.00452 18.9265C8.9371 18.9939 8.84387 19.0323 8.74871 19.0323ZM10.3087 19.3548H10.249C10.1668 19.3548 10.0881 19.3248 10.0268 19.2706L9.78548 19.0577L10.0277 18.8155C10.1142 18.729 10.1813 18.6261 10.231 18.5158L10.5242 18.76C10.601 18.8239 10.6452 18.9181 10.6452 19.0184C10.6452 19.2039 10.4942 19.3548 10.3087 19.3548ZM13.2016 16.4516H13.1458C13.0648 16.4516 12.9858 16.4229 12.9239 16.371L11.1745 14.9132L10.7613 15.409L12.46 16.8245C12.5365 16.8884 12.5806 16.9826 12.5806 17.0829C12.5806 17.2684 12.4297 17.4194 12.2442 17.4194H12.1739C12.0955 17.4194 12.019 17.3916 11.9587 17.3413L10.2065 15.8813L9.79323 16.3771L11.4919 17.7926C11.5687 17.8561 11.6129 17.9503 11.6129 18.0506C11.6129 18.2361 11.4619 18.3871 11.2765 18.3871C11.1526 18.3871 11.0319 18.3432 10.9371 18.2642L10.2171 17.6642C10.0584 17.34 9.73258 17.1139 9.35097 17.1003C9.33226 16.5742 8.90936 16.1513 8.38323 16.1326C8.36452 15.6065 7.94161 15.1835 7.41548 15.1648C7.39645 14.6265 6.95548 14.1935 6.41258 14.1935C6.14742 14.1935 5.88806 14.301 5.70065 14.4884L5.13355 15.0555C5.09968 15.0894 5.07161 15.1277 5.04323 15.1658L4.05226 14.5713L4.92097 11.531L7.09871 11.0468C7.67 10.919 8.27226 10.9468 8.82935 11.1252L9.30452 11.2771L7.69355 12.0826C7.32548 12.2671 7.09677 12.6374 7.09677 13.049V13.1129C7.09677 13.7087 7.58161 14.1935 8.17742 14.1935C8.37323 14.1935 8.56581 14.1403 8.73323 14.0394L9.93452 13.319C10.1758 13.1745 10.4997 13.2061 10.7081 13.3935L13.4335 15.8465C13.5065 15.9126 13.5484 16.0065 13.5484 16.1048C13.5484 16.2961 13.3929 16.4516 13.2016 16.4516ZM19.3548 12.7039L13.9203 15.4213C13.9026 15.4026 13.8842 15.3848 13.8648 15.3674L11.1397 12.9145C10.901 12.699 10.5923 12.5806 10.2706 12.5806C10.0355 12.5806 9.80452 12.6445 9.60226 12.7658L8.40065 13.4865C8.33323 13.5271 8.25613 13.5484 8.17742 13.5484C7.9371 13.5484 7.74194 13.3532 7.74194 13.1129V13.049C7.74194 12.8829 7.83419 12.7339 7.98258 12.6597L9.78193 11.76C10.09 11.6058 10.4555 11.5713 10.7874 11.6668L12.8145 12.2458L13.3055 12.2581L19.3548 9.07419V12.7039Z" fill="#FCFCFC"/>
</svg>
